<svg width="21" height="20" viewBox="0 0 21 20" fill="none" xmlns="http://www.w3.org/2000/svg">
<path d="M19.0094 16.25C19.0094 16.4158 18.9436 16.5747 18.8263 16.6919C18.7091 16.8092 18.5502 16.875 18.3844 16.875H3.3844C3.21864 16.875 3.05967 16.8092 2.94246 16.6919C2.82525 16.5747 2.7594 16.4158 2.7594 16.25V3.75C2.7594 3.58424 2.82525 3.42527 2.94246 3.30806C3.05967 3.19085 3.21864 3.125 3.3844 3.125C3.55016 3.125 3.70913 3.19085 3.82634 3.30806C3.94355 3.42527 4.0094 3.58424 4.0094 3.75V11.1227L7.97268 7.65625C8.08053 7.56184 8.21755 7.50737 8.36078 7.50197C8.50401 7.49656 8.64474 7.54055 8.7594 7.62656L13.3539 11.0727L17.9727 7.03125C18.0332 6.9713 18.1054 6.92437 18.1848 6.89334C18.2641 6.86231 18.349 6.84784 18.4342 6.85081C18.5193 6.85378 18.603 6.87414 18.68 6.91062C18.757 6.94711 18.8257 6.99896 18.882 7.06298C18.9382 7.127 18.9807 7.20185 19.007 7.28292C19.0332 7.36399 19.0426 7.44956 19.0346 7.5344C19.0265 7.61923 19.0012 7.70152 18.9602 7.77622C18.9192 7.85091 18.8634 7.91643 18.7961 7.96875L13.7961 12.3438C13.6883 12.4382 13.5513 12.4926 13.408 12.498C13.2648 12.5034 13.1241 12.4594 13.0094 12.3734L8.41487 8.92891L4.0094 12.7836V15.625H18.3844C18.5502 15.625 18.7091 15.6908 18.8263 15.8081C18.9436 15.9253 19.0094 16.0842 19.0094 16.25Z" fill="#031B15"/>
</svg>
